<?xml version="1.0" encoding="UTF-8" standalone="no"?>
<!DOCTYPE svg PUBLIC "-//W3C//DTD SVG 1.1//EN"
 "http://www.w3.org/Graphics/SVG/1.1/DTD/svg11.dtd">
<!-- Generated by graphviz version 5.0.0 (20220707.1540)
 -->
<!-- Title: dependencies Pages: 1 -->
<svg width="1028pt" height="247pt"
 viewBox="0.00 0.00 1028.00 246.80" xmlns="http://www.w3.org/2000/svg" xmlns:xlink="http://www.w3.org/1999/xlink">
<g id="graph0" class="graph" transform="scale(1 1) rotate(0) translate(4 242.8)">
<title>dependencies</title>
<polygon fill="white" stroke="transparent" points="-4,4 -4,-242.8 1024,-242.8 1024,4 -4,4"/>
<text text-anchor="middle" x="510" y="-8.2" font-family="sans-serif" font-size="14.00">dependencies</text>
<g id="clust1" class="cluster">
<title>cluster_AppModule</title>
<polygon fill="none" stroke="black" stroke-dasharray="1,5" points="8,-32.8 8,-230.8 1012,-230.8 1012,-32.8 8,-32.8"/>
</g>
<g id="clust11" class="cluster">
<title>cluster_AppModule_bootstrap</title>
<polygon fill="none" stroke="black" points="449,-170.8 449,-222.8 573,-222.8 573,-170.8 449,-170.8"/>
</g>
<g id="clust9" class="cluster">
<title>cluster_AppModule_imports</title>
<polygon fill="none" stroke="black" points="860,-40.8 860,-92.8 1004,-92.8 1004,-40.8 860,-40.8"/>
</g>
<g id="clust2" class="cluster">
<title>cluster_AppModule_declarations</title>
<polygon fill="none" stroke="black" points="16,-40.8 16,-92.8 852,-92.8 852,-40.8 16,-40.8"/>
</g>
<!-- AnalyticsComponent -->
<g id="node1" class="node">
<title>AnalyticsComponent</title>
<polygon fill="#ffffb3" stroke="black" points="844.49,-84.8 709.51,-84.8 709.51,-48.8 844.49,-48.8 844.49,-84.8"/>
<text text-anchor="middle" x="777" y="-62.6" font-family="Times,serif" font-size="14.00">AnalyticsComponent</text>
</g>
<!-- AppModule -->
<g id="node7" class="node">
<title>AppModule</title>
<polygon fill="#8dd3c7" stroke="black" points="552.66,-149.8 549.66,-153.8 528.66,-153.8 525.66,-149.8 469.34,-149.8 469.34,-113.8 552.66,-113.8 552.66,-149.8"/>
<text text-anchor="middle" x="511" y="-127.6" font-family="Times,serif" font-size="14.00">AppModule</text>
</g>
<!-- AnalyticsComponent&#45;&gt;AppModule -->
<g id="edge1" class="edge">
<title>AnalyticsComponent&#45;&gt;AppModule</title>
<path fill="none" stroke="black" d="M777,-84.91C777,-104.14 777,-131.8 777,-131.8 777,-131.8 562.86,-131.8 562.86,-131.8"/>
<polygon fill="black" stroke="black" points="562.86,-128.3 552.86,-131.8 562.86,-135.3 562.86,-128.3"/>
</g>
<!-- AppComponent -->
<g id="node2" class="node">
<title>AppComponent</title>
<polygon fill="#ffffb3" stroke="black" points="691.94,-84.8 586.06,-84.8 586.06,-48.8 691.94,-48.8 691.94,-84.8"/>
<text text-anchor="middle" x="639" y="-62.6" font-family="Times,serif" font-size="14.00">AppComponent</text>
</g>
<!-- AppComponent&#45;&gt;AppModule -->
<g id="edge2" class="edge">
<title>AppComponent&#45;&gt;AppModule</title>
<path fill="none" stroke="black" d="M639,-84.83C639,-101.2 639,-122.8 639,-122.8 639,-122.8 562.91,-122.8 562.91,-122.8"/>
<polygon fill="black" stroke="black" points="562.91,-119.3 552.91,-122.8 562.91,-126.3 562.91,-119.3"/>
</g>
<!-- LoginComponent -->
<g id="node3" class="node">
<title>LoginComponent</title>
<polygon fill="#ffffb3" stroke="black" points="568.27,-84.8 453.73,-84.8 453.73,-48.8 568.27,-48.8 568.27,-84.8"/>
<text text-anchor="middle" x="511" y="-62.6" font-family="Times,serif" font-size="14.00">LoginComponent</text>
</g>
<!-- LoginComponent&#45;&gt;AppModule -->
<g id="edge3" class="edge">
<title>LoginComponent&#45;&gt;AppModule</title>
<path fill="none" stroke="black" d="M511,-84.91C511,-84.91 511,-103.79 511,-103.79"/>
<polygon fill="black" stroke="black" points="507.5,-103.79 511,-113.79 514.5,-103.79 507.5,-103.79"/>
</g>
<!-- ProfileComponent -->
<g id="node4" class="node">
<title>ProfileComponent</title>
<polygon fill="#ffffb3" stroke="black" points="435.94,-84.8 316.06,-84.8 316.06,-48.8 435.94,-48.8 435.94,-84.8"/>
<text text-anchor="middle" x="376" y="-62.6" font-family="Times,serif" font-size="14.00">ProfileComponent</text>
</g>
<!-- ProfileComponent&#45;&gt;AppModule -->
<g id="edge4" class="edge">
<title>ProfileComponent&#45;&gt;AppModule</title>
<path fill="none" stroke="black" d="M376,-84.83C376,-101.2 376,-122.8 376,-122.8 376,-122.8 459.03,-122.8 459.03,-122.8"/>
<polygon fill="black" stroke="black" points="459.03,-126.3 469.03,-122.8 459.03,-119.3 459.03,-126.3"/>
</g>
<!-- TableComponent -->
<g id="node5" class="node">
<title>TableComponent</title>
<polygon fill="#ffffb3" stroke="black" points="298.7,-84.8 185.3,-84.8 185.3,-48.8 298.7,-48.8 298.7,-84.8"/>
<text text-anchor="middle" x="242" y="-62.6" font-family="Times,serif" font-size="14.00">TableComponent</text>
</g>
<!-- TableComponent&#45;&gt;AppModule -->
<g id="edge5" class="edge">
<title>TableComponent&#45;&gt;AppModule</title>
<path fill="none" stroke="black" d="M242,-84.91C242,-104.14 242,-131.8 242,-131.8 242,-131.8 459.26,-131.8 459.26,-131.8"/>
<polygon fill="black" stroke="black" points="459.26,-135.3 469.26,-131.8 459.26,-128.3 459.26,-135.3"/>
</g>
<!-- ViewTableComponent -->
<g id="node6" class="node">
<title>ViewTableComponent</title>
<polygon fill="#ffffb3" stroke="black" points="167.53,-84.8 24.47,-84.8 24.47,-48.8 167.53,-48.8 167.53,-84.8"/>
<text text-anchor="middle" x="96" y="-62.6" font-family="Times,serif" font-size="14.00">ViewTableComponent</text>
</g>
<!-- ViewTableComponent&#45;&gt;AppModule -->
<g id="edge6" class="edge">
<title>ViewTableComponent&#45;&gt;AppModule</title>
<path fill="none" stroke="black" d="M96,-85.09C96,-107.01 96,-140.8 96,-140.8 96,-140.8 459.31,-140.8 459.31,-140.8"/>
<polygon fill="black" stroke="black" points="459.31,-144.3 469.31,-140.8 459.31,-137.3 459.31,-144.3"/>
</g>
<!-- AppComponent  -->
<g id="node9" class="node">
<title>AppComponent </title>
<polygon fill="#80b1d3" stroke="black" points="565.44,-214.8 456.56,-214.8 456.56,-178.8 565.44,-178.8 565.44,-214.8"/>
<text text-anchor="middle" x="511" y="-192.6" font-family="Times,serif" font-size="14.00">AppComponent </text>
</g>
<!-- AppModule&#45;&gt;AppComponent  -->
<g id="edge8" class="edge">
<title>AppModule&#45;&gt;AppComponent </title>
<path fill="none" stroke="black" stroke-dasharray="1,5" d="M511,-149.91C511,-149.91 511,-168.79 511,-168.79"/>
<polygon fill="black" stroke="black" points="507.5,-168.79 511,-178.79 514.5,-168.79 507.5,-168.79"/>
</g>
<!-- AppRoutingModule -->
<g id="node8" class="node">
<title>AppRoutingModule</title>
<polygon fill="#8dd3c7" stroke="black" points="996.28,-84.8 993.28,-88.8 972.28,-88.8 969.28,-84.8 867.72,-84.8 867.72,-48.8 996.28,-48.8 996.28,-84.8"/>
<text text-anchor="middle" x="932" y="-62.6" font-family="Times,serif" font-size="14.00">AppRoutingModule</text>
</g>
<!-- AppRoutingModule&#45;&gt;AppModule -->
<g id="edge7" class="edge">
<title>AppRoutingModule&#45;&gt;AppModule</title>
<path fill="none" stroke="black" d="M932,-85.09C932,-107.01 932,-140.8 932,-140.8 932,-140.8 562.91,-140.8 562.91,-140.8"/>
<polygon fill="black" stroke="black" points="562.91,-137.3 552.91,-140.8 562.91,-144.3 562.91,-137.3"/>
</g>
</g>
</svg>
