<?xml version="1.0" encoding="UTF-8" standalone="no"?>
<!DOCTYPE svg PUBLIC "-//W3C//DTD SVG 1.1//EN"
 "http://www.w3.org/Graphics/SVG/1.1/DTD/svg11.dtd">
<!-- Generated by graphviz version 5.0.0 (20220707.1540)
 -->
<!-- Title: dependencies Pages: 1 -->
<svg width="891pt" height="247pt"
 viewBox="0.00 0.00 891.00 246.80" xmlns="http://www.w3.org/2000/svg" xmlns:xlink="http://www.w3.org/1999/xlink">
<g id="graph0" class="graph" transform="scale(1 1) rotate(0) translate(4 242.8)">
<title>dependencies</title>
<polygon fill="white" stroke="transparent" points="-4,4 -4,-242.8 887,-242.8 887,4 -4,4"/>
<text text-anchor="middle" x="441.5" y="-8.2" font-family="sans-serif" font-size="14.00">dependencies</text>
<g id="clust1" class="cluster">
<title>cluster_AppModule</title>
<polygon fill="none" stroke="black" stroke-dasharray="1,5" points="8,-32.8 8,-230.8 875,-230.8 875,-32.8 8,-32.8"/>
</g>
<g id="clust8" class="cluster">
<title>cluster_AppModule_imports</title>
<polygon fill="none" stroke="black" points="723,-40.8 723,-92.8 867,-92.8 867,-40.8 723,-40.8"/>
</g>
<g id="clust2" class="cluster">
<title>cluster_AppModule_declarations</title>
<polygon fill="none" stroke="black" points="16,-40.8 16,-92.8 715,-92.8 715,-40.8 16,-40.8"/>
</g>
<g id="clust10" class="cluster">
<title>cluster_AppModule_bootstrap</title>
<polygon fill="none" stroke="black" points="376,-170.8 376,-222.8 500,-222.8 500,-170.8 376,-170.8"/>
</g>
<!-- AnalyticsComponent -->
<g id="node1" class="node">
<title>AnalyticsComponent</title>
<polygon fill="#ffffb3" stroke="black" points="707.49,-84.8 572.51,-84.8 572.51,-48.8 707.49,-48.8 707.49,-84.8"/>
<text text-anchor="middle" x="640" y="-62.6" font-family="Times,serif" font-size="14.00">AnalyticsComponent</text>
</g>
<!-- AppModule -->
<g id="node6" class="node">
<title>AppModule</title>
<polygon fill="#8dd3c7" stroke="black" points="479.66,-149.8 476.66,-153.8 455.66,-153.8 452.66,-149.8 396.34,-149.8 396.34,-113.8 479.66,-113.8 479.66,-149.8"/>
<text text-anchor="middle" x="438" y="-127.6" font-family="Times,serif" font-size="14.00">AppModule</text>
</g>
<!-- AnalyticsComponent&#45;&gt;AppModule -->
<g id="edge1" class="edge">
<title>AnalyticsComponent&#45;&gt;AppModule</title>
<path fill="none" stroke="black" d="M640,-84.82C640,-102.17 640,-125.8 640,-125.8 640,-125.8 489.85,-125.8 489.85,-125.8"/>
<polygon fill="black" stroke="black" points="489.85,-122.3 479.85,-125.8 489.85,-129.3 489.85,-122.3"/>
</g>
<!-- AppComponent -->
<g id="node2" class="node">
<title>AppComponent</title>
<polygon fill="#ffffb3" stroke="black" points="554.94,-84.8 449.06,-84.8 449.06,-48.8 554.94,-48.8 554.94,-84.8"/>
<text text-anchor="middle" x="502" y="-62.6" font-family="Times,serif" font-size="14.00">AppComponent</text>
</g>
<!-- AppComponent&#45;&gt;AppModule -->
<g id="edge2" class="edge">
<title>AppComponent&#45;&gt;AppModule</title>
<path fill="none" stroke="black" d="M464.56,-84.91C464.56,-84.91 464.56,-103.79 464.56,-103.79"/>
<polygon fill="black" stroke="black" points="461.06,-103.79 464.56,-113.79 468.06,-103.79 461.06,-103.79"/>
</g>
<!-- LoginComponent -->
<g id="node3" class="node">
<title>LoginComponent</title>
<polygon fill="#ffffb3" stroke="black" points="431.27,-84.8 316.73,-84.8 316.73,-48.8 431.27,-48.8 431.27,-84.8"/>
<text text-anchor="middle" x="374" y="-62.6" font-family="Times,serif" font-size="14.00">LoginComponent</text>
</g>
<!-- LoginComponent&#45;&gt;AppModule -->
<g id="edge3" class="edge">
<title>LoginComponent&#45;&gt;AppModule</title>
<path fill="none" stroke="black" d="M413.78,-84.91C413.78,-84.91 413.78,-103.79 413.78,-103.79"/>
<polygon fill="black" stroke="black" points="410.28,-103.79 413.78,-113.79 417.28,-103.79 410.28,-103.79"/>
</g>
<!-- TableComponent -->
<g id="node4" class="node">
<title>TableComponent</title>
<polygon fill="#ffffb3" stroke="black" points="298.7,-84.8 185.3,-84.8 185.3,-48.8 298.7,-48.8 298.7,-84.8"/>
<text text-anchor="middle" x="242" y="-62.6" font-family="Times,serif" font-size="14.00">TableComponent</text>
</g>
<!-- TableComponent&#45;&gt;AppModule -->
<g id="edge4" class="edge">
<title>TableComponent&#45;&gt;AppModule</title>
<path fill="none" stroke="black" d="M242,-84.82C242,-102.17 242,-125.8 242,-125.8 242,-125.8 385.95,-125.8 385.95,-125.8"/>
<polygon fill="black" stroke="black" points="385.95,-129.3 395.95,-125.8 385.95,-122.3 385.95,-129.3"/>
</g>
<!-- ViewTableComponent -->
<g id="node5" class="node">
<title>ViewTableComponent</title>
<polygon fill="#ffffb3" stroke="black" points="167.53,-84.8 24.47,-84.8 24.47,-48.8 167.53,-48.8 167.53,-84.8"/>
<text text-anchor="middle" x="96" y="-62.6" font-family="Times,serif" font-size="14.00">ViewTableComponent</text>
</g>
<!-- ViewTableComponent&#45;&gt;AppModule -->
<g id="edge5" class="edge">
<title>ViewTableComponent&#45;&gt;AppModule</title>
<path fill="none" stroke="black" d="M96,-85.08C96,-106.12 96,-137.8 96,-137.8 96,-137.8 386.06,-137.8 386.06,-137.8"/>
<polygon fill="black" stroke="black" points="386.06,-141.3 396.06,-137.8 386.06,-134.3 386.06,-141.3"/>
</g>
<!-- AppComponent  -->
<g id="node8" class="node">
<title>AppComponent </title>
<polygon fill="#80b1d3" stroke="black" points="492.44,-214.8 383.56,-214.8 383.56,-178.8 492.44,-178.8 492.44,-214.8"/>
<text text-anchor="middle" x="438" y="-192.6" font-family="Times,serif" font-size="14.00">AppComponent </text>
</g>
<!-- AppModule&#45;&gt;AppComponent  -->
<g id="edge7" class="edge">
<title>AppModule&#45;&gt;AppComponent </title>
<path fill="none" stroke="black" stroke-dasharray="1,5" d="M438,-149.91C438,-149.91 438,-168.79 438,-168.79"/>
<polygon fill="black" stroke="black" points="434.5,-168.79 438,-178.79 441.5,-168.79 434.5,-168.79"/>
</g>
<!-- AppRoutingModule -->
<g id="node7" class="node">
<title>AppRoutingModule</title>
<polygon fill="#8dd3c7" stroke="black" points="859.28,-84.8 856.28,-88.8 835.28,-88.8 832.28,-84.8 730.72,-84.8 730.72,-48.8 859.28,-48.8 859.28,-84.8"/>
<text text-anchor="middle" x="795" y="-62.6" font-family="Times,serif" font-size="14.00">AppRoutingModule</text>
</g>
<!-- AppRoutingModule&#45;&gt;AppModule -->
<g id="edge6" class="edge">
<title>AppRoutingModule&#45;&gt;AppModule</title>
<path fill="none" stroke="black" d="M795,-85.08C795,-106.12 795,-137.8 795,-137.8 795,-137.8 490,-137.8 490,-137.8"/>
<polygon fill="black" stroke="black" points="490,-134.3 480,-137.8 490,-141.3 490,-134.3"/>
</g>
</g>
</svg>
