<?xml version="1.0" encoding="UTF-8" standalone="no"?>
<!DOCTYPE svg PUBLIC "-//W3C//DTD SVG 1.1//EN"
 "http://www.w3.org/Graphics/SVG/1.1/DTD/svg11.dtd">
<!-- Generated by graphviz version 5.0.0 (20220707.1540)
 -->
<!-- Title: dependencies Pages: 1 -->
<svg width="891pt" height="247pt"
 viewBox="0.00 0.00 891.00 246.80" xmlns="http://www.w3.org/2000/svg" xmlns:xlink="http://www.w3.org/1999/xlink">
<g id="graph0" class="graph" transform="scale(1 1) rotate(0) translate(4 242.8)">
<title>dependencies</title>
<polygon fill="white" stroke="transparent" points="-4,4 -4,-242.8 887,-242.8 887,4 -4,4"/>
<text text-anchor="middle" x="441.5" y="-8.2" font-family="sans-serif" font-size="14.00">dependencies</text>
<g id="clust1" class="cluster">
<title>cluster_AppModule</title>
<polygon fill="none" stroke="black" stroke-dasharray="1,5" points="8,-32.8 8,-230.8 875,-230.8 875,-32.8 8,-32.8"/>
</g>
<g id="clust2" class="cluster">
<title>cluster_AppModule_declarations</title>
<polygon fill="none" stroke="black" points="168,-40.8 168,-92.8 867,-92.8 867,-40.8 168,-40.8"/>
</g>
<g id="clust8" class="cluster">
<title>cluster_AppModule_imports</title>
<polygon fill="none" stroke="black" points="16,-40.8 16,-92.8 160,-92.8 160,-40.8 16,-40.8"/>
</g>
<g id="clust10" class="cluster">
<title>cluster_AppModule_bootstrap</title>
<polygon fill="none" stroke="black" points="398,-170.8 398,-222.8 522,-222.8 522,-170.8 398,-170.8"/>
</g>
<!-- AnalyticsComponent -->
<g id="node1" class="node">
<title>AnalyticsComponent</title>
<polygon fill="#ffffb3" stroke="black" points="859.49,-84.8 724.51,-84.8 724.51,-48.8 859.49,-48.8 859.49,-84.8"/>
<text text-anchor="middle" x="792" y="-62.6" font-family="Times,serif" font-size="14.00">AnalyticsComponent</text>
</g>
<!-- AppModule -->
<g id="node6" class="node">
<title>AppModule</title>
<polygon fill="#8dd3c7" stroke="black" points="501.66,-149.8 498.66,-153.8 477.66,-153.8 474.66,-149.8 418.34,-149.8 418.34,-113.8 501.66,-113.8 501.66,-149.8"/>
<text text-anchor="middle" x="460" y="-127.6" font-family="Times,serif" font-size="14.00">AppModule</text>
</g>
<!-- AnalyticsComponent&#45;&gt;AppModule -->
<g id="edge1" class="edge">
<title>AnalyticsComponent&#45;&gt;AppModule</title>
<path fill="none" stroke="black" d="M792,-85.08C792,-106.12 792,-137.8 792,-137.8 792,-137.8 511.71,-137.8 511.71,-137.8"/>
<polygon fill="black" stroke="black" points="511.71,-134.3 501.71,-137.8 511.71,-141.3 511.71,-134.3"/>
</g>
<!-- AppComponent -->
<g id="node2" class="node">
<title>AppComponent</title>
<polygon fill="#ffffb3" stroke="black" points="706.94,-84.8 601.06,-84.8 601.06,-48.8 706.94,-48.8 706.94,-84.8"/>
<text text-anchor="middle" x="654" y="-62.6" font-family="Times,serif" font-size="14.00">AppComponent</text>
</g>
<!-- AppComponent&#45;&gt;AppModule -->
<g id="edge2" class="edge">
<title>AppComponent&#45;&gt;AppModule</title>
<path fill="none" stroke="black" d="M654,-84.82C654,-102.17 654,-125.8 654,-125.8 654,-125.8 512.1,-125.8 512.1,-125.8"/>
<polygon fill="black" stroke="black" points="512.1,-122.3 502.1,-125.8 512.1,-129.3 512.1,-122.3"/>
</g>
<!-- LoginComponent -->
<g id="node3" class="node">
<title>LoginComponent</title>
<polygon fill="#ffffb3" stroke="black" points="583.27,-84.8 468.73,-84.8 468.73,-48.8 583.27,-48.8 583.27,-84.8"/>
<text text-anchor="middle" x="526" y="-62.6" font-family="Times,serif" font-size="14.00">LoginComponent</text>
</g>
<!-- LoginComponent&#45;&gt;AppModule -->
<g id="edge3" class="edge">
<title>LoginComponent&#45;&gt;AppModule</title>
<path fill="none" stroke="black" d="M485.22,-84.91C485.22,-84.91 485.22,-103.79 485.22,-103.79"/>
<polygon fill="black" stroke="black" points="481.72,-103.79 485.22,-113.79 488.72,-103.79 481.72,-103.79"/>
</g>
<!-- TableComponent -->
<g id="node4" class="node">
<title>TableComponent</title>
<polygon fill="#ffffb3" stroke="black" points="450.7,-84.8 337.3,-84.8 337.3,-48.8 450.7,-48.8 450.7,-84.8"/>
<text text-anchor="middle" x="394" y="-62.6" font-family="Times,serif" font-size="14.00">TableComponent</text>
</g>
<!-- TableComponent&#45;&gt;AppModule -->
<g id="edge4" class="edge">
<title>TableComponent&#45;&gt;AppModule</title>
<path fill="none" stroke="black" d="M434.38,-84.91C434.38,-84.91 434.38,-103.79 434.38,-103.79"/>
<polygon fill="black" stroke="black" points="430.88,-103.79 434.38,-113.79 437.88,-103.79 430.88,-103.79"/>
</g>
<!-- ViewTableComponent -->
<g id="node5" class="node">
<title>ViewTableComponent</title>
<polygon fill="#ffffb3" stroke="black" points="319.53,-84.8 176.47,-84.8 176.47,-48.8 319.53,-48.8 319.53,-84.8"/>
<text text-anchor="middle" x="248" y="-62.6" font-family="Times,serif" font-size="14.00">ViewTableComponent</text>
</g>
<!-- ViewTableComponent&#45;&gt;AppModule -->
<g id="edge5" class="edge">
<title>ViewTableComponent&#45;&gt;AppModule</title>
<path fill="none" stroke="black" d="M248,-84.82C248,-102.17 248,-125.8 248,-125.8 248,-125.8 408.12,-125.8 408.12,-125.8"/>
<polygon fill="black" stroke="black" points="408.12,-129.3 418.12,-125.8 408.12,-122.3 408.12,-129.3"/>
</g>
<!-- AppComponent  -->
<g id="node8" class="node">
<title>AppComponent </title>
<polygon fill="#80b1d3" stroke="black" points="514.44,-214.8 405.56,-214.8 405.56,-178.8 514.44,-178.8 514.44,-214.8"/>
<text text-anchor="middle" x="460" y="-192.6" font-family="Times,serif" font-size="14.00">AppComponent </text>
</g>
<!-- AppModule&#45;&gt;AppComponent  -->
<g id="edge7" class="edge">
<title>AppModule&#45;&gt;AppComponent </title>
<path fill="none" stroke="black" stroke-dasharray="1,5" d="M460,-149.91C460,-149.91 460,-168.79 460,-168.79"/>
<polygon fill="black" stroke="black" points="456.5,-168.79 460,-178.79 463.5,-168.79 456.5,-168.79"/>
</g>
<!-- AppRoutingModule -->
<g id="node7" class="node">
<title>AppRoutingModule</title>
<polygon fill="#8dd3c7" stroke="black" points="152.28,-84.8 149.28,-88.8 128.28,-88.8 125.28,-84.8 23.72,-84.8 23.72,-48.8 152.28,-48.8 152.28,-84.8"/>
<text text-anchor="middle" x="88" y="-62.6" font-family="Times,serif" font-size="14.00">AppRoutingModule</text>
</g>
<!-- AppRoutingModule&#45;&gt;AppModule -->
<g id="edge6" class="edge">
<title>AppRoutingModule&#45;&gt;AppModule</title>
<path fill="none" stroke="black" d="M88,-85.08C88,-106.12 88,-137.8 88,-137.8 88,-137.8 408.05,-137.8 408.05,-137.8"/>
<polygon fill="black" stroke="black" points="408.05,-141.3 418.05,-137.8 408.05,-134.3 408.05,-141.3"/>
</g>
</g>
</svg>
