<?xml version="1.0" encoding="UTF-8" standalone="no"?>
<!DOCTYPE svg PUBLIC "-//W3C//DTD SVG 1.1//EN"
 "http://www.w3.org/Graphics/SVG/1.1/DTD/svg11.dtd">
<!-- Generated by graphviz version 5.0.0 (20220707.1540)
 -->
<!-- Title: dependencies Pages: 1 -->
<svg width="1028pt" height="247pt"
 viewBox="0.00 0.00 1028.00 246.80" xmlns="http://www.w3.org/2000/svg" xmlns:xlink="http://www.w3.org/1999/xlink">
<g id="graph0" class="graph" transform="scale(1 1) rotate(0) translate(4 242.8)">
<title>dependencies</title>
<polygon fill="white" stroke="transparent" points="-4,4 -4,-242.8 1024,-242.8 1024,4 -4,4"/>
<text text-anchor="middle" x="510" y="-8.2" font-family="sans-serif" font-size="14.00">dependencies</text>
<g id="clust1" class="cluster">
<title>cluster_AppModule</title>
<polygon fill="none" stroke="black" stroke-dasharray="1,5" points="8,-32.8 8,-230.8 1012,-230.8 1012,-32.8 8,-32.8"/>
</g>
<g id="clust2" class="cluster">
<title>cluster_AppModule_declarations</title>
<polygon fill="none" stroke="black" points="168,-40.8 168,-92.8 1004,-92.8 1004,-40.8 168,-40.8"/>
</g>
<g id="clust9" class="cluster">
<title>cluster_AppModule_imports</title>
<polygon fill="none" stroke="black" points="16,-40.8 16,-92.8 160,-92.8 160,-40.8 16,-40.8"/>
</g>
<g id="clust11" class="cluster">
<title>cluster_AppModule_bootstrap</title>
<polygon fill="none" stroke="black" points="466,-170.8 466,-222.8 590,-222.8 590,-170.8 466,-170.8"/>
</g>
<!-- AnalyticsComponent -->
<g id="node1" class="node">
<title>AnalyticsComponent</title>
<polygon fill="#ffffb3" stroke="black" points="996.49,-84.8 861.51,-84.8 861.51,-48.8 996.49,-48.8 996.49,-84.8"/>
<text text-anchor="middle" x="929" y="-62.6" font-family="Times,serif" font-size="14.00">AnalyticsComponent</text>
</g>
<!-- AppModule -->
<g id="node7" class="node">
<title>AppModule</title>
<polygon fill="#8dd3c7" stroke="black" points="569.66,-149.8 566.66,-153.8 545.66,-153.8 542.66,-149.8 486.34,-149.8 486.34,-113.8 569.66,-113.8 569.66,-149.8"/>
<text text-anchor="middle" x="528" y="-127.6" font-family="Times,serif" font-size="14.00">AppModule</text>
</g>
<!-- AnalyticsComponent&#45;&gt;AppModule -->
<g id="edge1" class="edge">
<title>AnalyticsComponent&#45;&gt;AppModule</title>
<path fill="none" stroke="black" d="M929,-85.09C929,-107.01 929,-140.8 929,-140.8 929,-140.8 579.78,-140.8 579.78,-140.8"/>
<polygon fill="black" stroke="black" points="579.78,-137.3 569.78,-140.8 579.78,-144.3 579.78,-137.3"/>
</g>
<!-- AppComponent -->
<g id="node2" class="node">
<title>AppComponent</title>
<polygon fill="#ffffb3" stroke="black" points="843.94,-84.8 738.06,-84.8 738.06,-48.8 843.94,-48.8 843.94,-84.8"/>
<text text-anchor="middle" x="791" y="-62.6" font-family="Times,serif" font-size="14.00">AppComponent</text>
</g>
<!-- AppComponent&#45;&gt;AppModule -->
<g id="edge2" class="edge">
<title>AppComponent&#45;&gt;AppModule</title>
<path fill="none" stroke="black" d="M791,-84.91C791,-104.14 791,-131.8 791,-131.8 791,-131.8 579.67,-131.8 579.67,-131.8"/>
<polygon fill="black" stroke="black" points="579.67,-128.3 569.67,-131.8 579.67,-135.3 579.67,-128.3"/>
</g>
<!-- LoginComponent -->
<g id="node3" class="node">
<title>LoginComponent</title>
<polygon fill="#ffffb3" stroke="black" points="720.27,-84.8 605.73,-84.8 605.73,-48.8 720.27,-48.8 720.27,-84.8"/>
<text text-anchor="middle" x="663" y="-62.6" font-family="Times,serif" font-size="14.00">LoginComponent</text>
</g>
<!-- LoginComponent&#45;&gt;AppModule -->
<g id="edge3" class="edge">
<title>LoginComponent&#45;&gt;AppModule</title>
<path fill="none" stroke="black" d="M663,-84.83C663,-101.2 663,-122.8 663,-122.8 663,-122.8 579.97,-122.8 579.97,-122.8"/>
<polygon fill="black" stroke="black" points="579.97,-119.3 569.97,-122.8 579.97,-126.3 579.97,-119.3"/>
</g>
<!-- ProfileComponent -->
<g id="node4" class="node">
<title>ProfileComponent</title>
<polygon fill="#ffffb3" stroke="black" points="587.94,-84.8 468.06,-84.8 468.06,-48.8 587.94,-48.8 587.94,-84.8"/>
<text text-anchor="middle" x="528" y="-62.6" font-family="Times,serif" font-size="14.00">ProfileComponent</text>
</g>
<!-- ProfileComponent&#45;&gt;AppModule -->
<g id="edge4" class="edge">
<title>ProfileComponent&#45;&gt;AppModule</title>
<path fill="none" stroke="black" d="M528,-84.91C528,-84.91 528,-103.79 528,-103.79"/>
<polygon fill="black" stroke="black" points="524.5,-103.79 528,-113.79 531.5,-103.79 524.5,-103.79"/>
</g>
<!-- TableComponent -->
<g id="node5" class="node">
<title>TableComponent</title>
<polygon fill="#ffffb3" stroke="black" points="450.7,-84.8 337.3,-84.8 337.3,-48.8 450.7,-48.8 450.7,-84.8"/>
<text text-anchor="middle" x="394" y="-62.6" font-family="Times,serif" font-size="14.00">TableComponent</text>
</g>
<!-- TableComponent&#45;&gt;AppModule -->
<g id="edge5" class="edge">
<title>TableComponent&#45;&gt;AppModule</title>
<path fill="none" stroke="black" d="M394,-84.83C394,-101.2 394,-122.8 394,-122.8 394,-122.8 476.34,-122.8 476.34,-122.8"/>
<polygon fill="black" stroke="black" points="476.34,-126.3 486.34,-122.8 476.34,-119.3 476.34,-126.3"/>
</g>
<!-- ViewTableComponent -->
<g id="node6" class="node">
<title>ViewTableComponent</title>
<polygon fill="#ffffb3" stroke="black" points="319.53,-84.8 176.47,-84.8 176.47,-48.8 319.53,-48.8 319.53,-84.8"/>
<text text-anchor="middle" x="248" y="-62.6" font-family="Times,serif" font-size="14.00">ViewTableComponent</text>
</g>
<!-- ViewTableComponent&#45;&gt;AppModule -->
<g id="edge6" class="edge">
<title>ViewTableComponent&#45;&gt;AppModule</title>
<path fill="none" stroke="black" d="M248,-84.91C248,-104.14 248,-131.8 248,-131.8 248,-131.8 476.08,-131.8 476.08,-131.8"/>
<polygon fill="black" stroke="black" points="476.08,-135.3 486.08,-131.8 476.08,-128.3 476.08,-135.3"/>
</g>
<!-- AppComponent  -->
<g id="node9" class="node">
<title>AppComponent </title>
<polygon fill="#80b1d3" stroke="black" points="582.44,-214.8 473.56,-214.8 473.56,-178.8 582.44,-178.8 582.44,-214.8"/>
<text text-anchor="middle" x="528" y="-192.6" font-family="Times,serif" font-size="14.00">AppComponent </text>
</g>
<!-- AppModule&#45;&gt;AppComponent  -->
<g id="edge8" class="edge">
<title>AppModule&#45;&gt;AppComponent </title>
<path fill="none" stroke="black" stroke-dasharray="1,5" d="M528,-149.91C528,-149.91 528,-168.79 528,-168.79"/>
<polygon fill="black" stroke="black" points="524.5,-168.79 528,-178.79 531.5,-168.79 524.5,-168.79"/>
</g>
<!-- AppRoutingModule -->
<g id="node8" class="node">
<title>AppRoutingModule</title>
<polygon fill="#8dd3c7" stroke="black" points="152.28,-84.8 149.28,-88.8 128.28,-88.8 125.28,-84.8 23.72,-84.8 23.72,-48.8 152.28,-48.8 152.28,-84.8"/>
<text text-anchor="middle" x="88" y="-62.6" font-family="Times,serif" font-size="14.00">AppRoutingModule</text>
</g>
<!-- AppRoutingModule&#45;&gt;AppModule -->
<g id="edge7" class="edge">
<title>AppRoutingModule&#45;&gt;AppModule</title>
<path fill="none" stroke="black" d="M88,-85.09C88,-107.01 88,-140.8 88,-140.8 88,-140.8 476.21,-140.8 476.21,-140.8"/>
<polygon fill="black" stroke="black" points="476.21,-144.3 486.21,-140.8 476.21,-137.3 476.21,-144.3"/>
</g>
</g>
</svg>
